<?xml version="1.0" encoding="UTF-8"?>
<svg xmlns="http://www.w3.org/2000/svg" xmlns:xlink="http://www.w3.org/1999/xlink" width="40px" height="40px" viewBox="0 0 40 40" version="1.1">
<g id="surface1">
<path style=" stroke:none;fill-rule:evenodd;fill:rgb(44.705882%,65.490196%,81.176471%);fill-opacity:1;" d="M 20 3.460938 C 10.867188 3.460938 3.460938 10.867188 3.460938 20 C 3.460938 29.132812 10.867188 36.539062 20 36.539062 C 29.132812 36.539062 36.539062 29.132812 36.539062 20 C 36.539062 10.867188 29.132812 3.460938 20 3.460938 Z M 20 8.582031 C 20.804688 8.597656 21.492188 8.875 22.058594 9.40625 C 22.582031 9.964844 22.851562 10.644531 22.871094 11.449219 C 22.851562 12.257812 22.582031 12.921875 22.058594 13.441406 C 21.492188 14.027344 20.804688 14.320312 20 14.320312 C 19.195312 14.320312 18.53125 14.027344 18.007812 13.441406 C 17.421875 12.921875 17.128906 12.257812 17.128906 11.449219 C 17.128906 10.644531 17.421875 9.964844 18.007812 9.40625 C 18.53125 8.875 19.195312 8.597656 20 8.582031 Z M 17.445312 16.984375 L 22.570312 16.984375 L 22.570312 31.417969 L 17.445312 31.417969 Z M 17.445312 16.984375 "/>
</g>
</svg>
